<mxfile host="app.diagrams.net" modified="2021-07-22T18:38:20.323Z" agent="5.0 (Windows NT 10.0; Win64; x64) AppleWebKit/537.36 (KHTML, like Gecko) Chrome/91.0.4472.164 Safari/537.36" etag="s-hqlaknz2VdAeWO8UDM" version="14.9.1" type="github">
  <diagram id="lZuwBexNoa2N1XPt0XM3" name="Page-1">
    <mxGraphModel dx="868" dy="450" grid="1" gridSize="10" guides="1" tooltips="1" connect="1" arrows="1" fold="1" page="1" pageScale="1" pageWidth="850" pageHeight="1100" math="0" shadow="0">
      <root>
        <mxCell id="0" />
        <mxCell id="1" parent="0" />
        <mxCell id="ddf9Bvz1MeLeIGU98-r2-6" style="edgeStyle=orthogonalEdgeStyle;rounded=0;orthogonalLoop=1;jettySize=auto;html=1;entryX=0.5;entryY=0;entryDx=0;entryDy=0;dashed=1;" parent="1" source="ddf9Bvz1MeLeIGU98-r2-1" target="ddf9Bvz1MeLeIGU98-r2-4" edge="1">
          <mxGeometry relative="1" as="geometry">
            <Array as="points">
              <mxPoint x="430" y="90" />
              <mxPoint x="140" y="90" />
            </Array>
          </mxGeometry>
        </mxCell>
        <mxCell id="ddf9Bvz1MeLeIGU98-r2-7" style="edgeStyle=orthogonalEdgeStyle;rounded=0;orthogonalLoop=1;jettySize=auto;html=1;entryX=0.5;entryY=0;entryDx=0;entryDy=0;dashed=1;" parent="1" source="ddf9Bvz1MeLeIGU98-r2-1" target="ddf9Bvz1MeLeIGU98-r2-5" edge="1">
          <mxGeometry relative="1" as="geometry">
            <Array as="points">
              <mxPoint x="430" y="90" />
              <mxPoint x="740" y="90" />
            </Array>
          </mxGeometry>
        </mxCell>
        <mxCell id="ddf9Bvz1MeLeIGU98-r2-1" value="" style="strokeWidth=2;html=1;shape=mxgraph.flowchart.multi-document;whiteSpace=wrap;" parent="1" vertex="1">
          <mxGeometry x="360" y="10" width="140" height="60" as="geometry" />
        </mxCell>
        <mxCell id="ddf9Bvz1MeLeIGU98-r2-2" value="Input Images from &lt;br&gt;4 Fisheye Cameras" style="text;html=1;strokeColor=none;fillColor=none;align=center;verticalAlign=middle;whiteSpace=wrap;rounded=0;" parent="1" vertex="1">
          <mxGeometry x="360" y="30" width="120" height="20" as="geometry" />
        </mxCell>
        <mxCell id="ddf9Bvz1MeLeIGU98-r2-12" style="edgeStyle=orthogonalEdgeStyle;rounded=0;orthogonalLoop=1;jettySize=auto;html=1;entryX=0;entryY=0.5;entryDx=0;entryDy=0;" parent="1" source="ddf9Bvz1MeLeIGU98-r2-4" target="ddf9Bvz1MeLeIGU98-r2-11" edge="1">
          <mxGeometry relative="1" as="geometry">
            <Array as="points">
              <mxPoint x="140" y="190" />
            </Array>
          </mxGeometry>
        </mxCell>
        <mxCell id="ddf9Bvz1MeLeIGU98-r2-4" value="" style="rounded=0;whiteSpace=wrap;html=1;" parent="1" vertex="1">
          <mxGeometry x="80" y="100" width="120" height="60" as="geometry" />
        </mxCell>
        <mxCell id="ddf9Bvz1MeLeIGU98-r2-13" style="edgeStyle=orthogonalEdgeStyle;rounded=0;orthogonalLoop=1;jettySize=auto;html=1;entryX=1;entryY=0.5;entryDx=0;entryDy=0;" parent="1" source="ddf9Bvz1MeLeIGU98-r2-5" target="ddf9Bvz1MeLeIGU98-r2-11" edge="1">
          <mxGeometry relative="1" as="geometry">
            <mxPoint x="510" y="198" as="targetPoint" />
            <Array as="points">
              <mxPoint x="740" y="190" />
            </Array>
          </mxGeometry>
        </mxCell>
        <mxCell id="ddf9Bvz1MeLeIGU98-r2-5" value="" style="rounded=0;whiteSpace=wrap;html=1;" parent="1" vertex="1">
          <mxGeometry x="680" y="100" width="120" height="60" as="geometry" />
        </mxCell>
        <mxCell id="ddf9Bvz1MeLeIGU98-r2-9" value="Select &quot;initial&quot; pair of frames" style="text;html=1;strokeColor=none;fillColor=none;align=center;verticalAlign=middle;whiteSpace=wrap;rounded=0;" parent="1" vertex="1">
          <mxGeometry x="95" y="120" width="90" height="20" as="geometry" />
        </mxCell>
        <mxCell id="ddf9Bvz1MeLeIGU98-r2-10" value="Add subsequent frame" style="text;html=1;strokeColor=none;fillColor=none;align=center;verticalAlign=middle;whiteSpace=wrap;rounded=0;" parent="1" vertex="1">
          <mxGeometry x="695" y="120" width="105" height="20" as="geometry" />
        </mxCell>
        <mxCell id="ddf9Bvz1MeLeIGU98-r2-18" style="edgeStyle=orthogonalEdgeStyle;rounded=0;orthogonalLoop=1;jettySize=auto;html=1;exitX=0;exitY=0.75;exitDx=0;exitDy=0;entryX=0.5;entryY=0;entryDx=0;entryDy=0;" parent="1" source="ddf9Bvz1MeLeIGU98-r2-11" target="ddf9Bvz1MeLeIGU98-r2-14" edge="1">
          <mxGeometry relative="1" as="geometry" />
        </mxCell>
        <mxCell id="ddf9Bvz1MeLeIGU98-r2-32" style="edgeStyle=orthogonalEdgeStyle;rounded=0;orthogonalLoop=1;jettySize=auto;html=1;exitX=1;exitY=0.75;exitDx=0;exitDy=0;entryX=0.5;entryY=0;entryDx=0;entryDy=0;" parent="1" source="ddf9Bvz1MeLeIGU98-r2-11" target="ddf9Bvz1MeLeIGU98-r2-23" edge="1">
          <mxGeometry relative="1" as="geometry" />
        </mxCell>
        <mxCell id="ddf9Bvz1MeLeIGU98-r2-11" value="Point Correspondences&lt;br&gt;(intra camera)" style="rounded=0;whiteSpace=wrap;html=1;" parent="1" vertex="1">
          <mxGeometry x="360" y="160" width="120" height="60" as="geometry" />
        </mxCell>
        <mxCell id="ddf9Bvz1MeLeIGU98-r2-20" style="edgeStyle=orthogonalEdgeStyle;rounded=0;orthogonalLoop=1;jettySize=auto;html=1;exitX=0.5;exitY=1;exitDx=0;exitDy=0;entryX=0.5;entryY=0;entryDx=0;entryDy=0;" parent="1" source="ddf9Bvz1MeLeIGU98-r2-14" target="ddf9Bvz1MeLeIGU98-r2-15" edge="1">
          <mxGeometry relative="1" as="geometry" />
        </mxCell>
        <mxCell id="ddf9Bvz1MeLeIGU98-r2-14" value="Essential Matrix using 8 point Algorithm" style="rounded=0;whiteSpace=wrap;html=1;" parent="1" vertex="1">
          <mxGeometry x="80" y="240" width="120" height="60" as="geometry" />
        </mxCell>
        <mxCell id="ddf9Bvz1MeLeIGU98-r2-21" style="edgeStyle=orthogonalEdgeStyle;rounded=0;orthogonalLoop=1;jettySize=auto;html=1;exitX=0.5;exitY=1;exitDx=0;exitDy=0;entryX=0.5;entryY=0;entryDx=0;entryDy=0;" parent="1" source="ddf9Bvz1MeLeIGU98-r2-15" target="ddf9Bvz1MeLeIGU98-r2-16" edge="1">
          <mxGeometry relative="1" as="geometry" />
        </mxCell>
        <mxCell id="ddf9Bvz1MeLeIGU98-r2-15" value="Pose Estimation&lt;br&gt;(Relative Orientation)" style="rounded=0;whiteSpace=wrap;html=1;" parent="1" vertex="1">
          <mxGeometry x="80" y="320" width="120" height="60" as="geometry" />
        </mxCell>
        <mxCell id="ddf9Bvz1MeLeIGU98-r2-22" style="edgeStyle=orthogonalEdgeStyle;rounded=0;orthogonalLoop=1;jettySize=auto;html=1;exitX=0.5;exitY=1;exitDx=0;exitDy=0;entryX=0.5;entryY=0;entryDx=0;entryDy=0;" parent="1" source="ddf9Bvz1MeLeIGU98-r2-16" target="ddf9Bvz1MeLeIGU98-r2-17" edge="1">
          <mxGeometry relative="1" as="geometry" />
        </mxCell>
        <mxCell id="ddf9Bvz1MeLeIGU98-r2-16" value="Triangulation" style="rounded=0;whiteSpace=wrap;html=1;" parent="1" vertex="1">
          <mxGeometry x="80" y="400" width="120" height="60" as="geometry" />
        </mxCell>
        <mxCell id="ddf9Bvz1MeLeIGU98-r2-36" style="edgeStyle=orthogonalEdgeStyle;rounded=0;orthogonalLoop=1;jettySize=auto;html=1;exitX=1;exitY=0.5;exitDx=0;exitDy=0;entryX=0;entryY=0.5;entryDx=0;entryDy=0;" parent="1" source="JdZRbOxOSghRVtSqmlaG-2" target="ddf9Bvz1MeLeIGU98-r2-27" edge="1">
          <mxGeometry relative="1" as="geometry">
            <Array as="points">
              <mxPoint x="200" y="620" />
            </Array>
          </mxGeometry>
        </mxCell>
        <mxCell id="JdZRbOxOSghRVtSqmlaG-3" style="edgeStyle=orthogonalEdgeStyle;rounded=0;orthogonalLoop=1;jettySize=auto;html=1;entryX=0.5;entryY=0;entryDx=0;entryDy=0;" edge="1" parent="1" source="ddf9Bvz1MeLeIGU98-r2-17" target="JdZRbOxOSghRVtSqmlaG-2">
          <mxGeometry relative="1" as="geometry" />
        </mxCell>
        <mxCell id="ddf9Bvz1MeLeIGU98-r2-17" value="Absolute Orientation" style="rounded=0;whiteSpace=wrap;html=1;" parent="1" vertex="1">
          <mxGeometry x="80" y="480" width="120" height="60" as="geometry" />
        </mxCell>
        <mxCell id="ddf9Bvz1MeLeIGU98-r2-33" style="edgeStyle=orthogonalEdgeStyle;rounded=0;orthogonalLoop=1;jettySize=auto;html=1;entryX=0.5;entryY=0;entryDx=0;entryDy=0;" parent="1" source="ddf9Bvz1MeLeIGU98-r2-23" target="ddf9Bvz1MeLeIGU98-r2-24" edge="1">
          <mxGeometry relative="1" as="geometry" />
        </mxCell>
        <mxCell id="ddf9Bvz1MeLeIGU98-r2-43" style="edgeStyle=orthogonalEdgeStyle;rounded=0;orthogonalLoop=1;jettySize=auto;html=1;entryX=1;entryY=0.5;entryDx=0;entryDy=0;dashed=1;" parent="1" source="ddf9Bvz1MeLeIGU98-r2-23" target="ddf9Bvz1MeLeIGU98-r2-14" edge="1">
          <mxGeometry relative="1" as="geometry">
            <Array as="points">
              <mxPoint x="650" y="270" />
              <mxPoint x="650" y="310" />
              <mxPoint x="280" y="310" />
              <mxPoint x="280" y="270" />
            </Array>
          </mxGeometry>
        </mxCell>
        <mxCell id="ddf9Bvz1MeLeIGU98-r2-23" value="Check for old and new points" style="rounded=0;whiteSpace=wrap;html=1;" parent="1" vertex="1">
          <mxGeometry x="680" y="240" width="120" height="60" as="geometry" />
        </mxCell>
        <mxCell id="ddf9Bvz1MeLeIGU98-r2-34" style="edgeStyle=orthogonalEdgeStyle;rounded=0;orthogonalLoop=1;jettySize=auto;html=1;entryX=0.5;entryY=0;entryDx=0;entryDy=0;" parent="1" source="ddf9Bvz1MeLeIGU98-r2-24" target="ddf9Bvz1MeLeIGU98-r2-25" edge="1">
          <mxGeometry relative="1" as="geometry" />
        </mxCell>
        <mxCell id="ddf9Bvz1MeLeIGU98-r2-24" value="Essential Matrix using P3P Algorithm" style="rounded=0;whiteSpace=wrap;html=1;" parent="1" vertex="1">
          <mxGeometry x="680" y="320" width="120" height="60" as="geometry" />
        </mxCell>
        <mxCell id="ddf9Bvz1MeLeIGU98-r2-35" style="edgeStyle=orthogonalEdgeStyle;rounded=0;orthogonalLoop=1;jettySize=auto;html=1;exitX=0.5;exitY=1;exitDx=0;exitDy=0;entryX=0.5;entryY=0;entryDx=0;entryDy=0;" parent="1" source="ddf9Bvz1MeLeIGU98-r2-25" target="ddf9Bvz1MeLeIGU98-r2-26" edge="1">
          <mxGeometry relative="1" as="geometry" />
        </mxCell>
        <mxCell id="ddf9Bvz1MeLeIGU98-r2-25" value="Triangulation for new points" style="rounded=0;whiteSpace=wrap;html=1;" parent="1" vertex="1">
          <mxGeometry x="680" y="400" width="120" height="60" as="geometry" />
        </mxCell>
        <mxCell id="ddf9Bvz1MeLeIGU98-r2-37" style="edgeStyle=orthogonalEdgeStyle;rounded=0;orthogonalLoop=1;jettySize=auto;html=1;exitX=0;exitY=0.667;exitDx=0;exitDy=0;entryX=1;entryY=0.5;entryDx=0;entryDy=0;exitPerimeter=0;" parent="1" source="JdZRbOxOSghRVtSqmlaG-6" target="ddf9Bvz1MeLeIGU98-r2-27" edge="1">
          <mxGeometry relative="1" as="geometry" />
        </mxCell>
        <mxCell id="JdZRbOxOSghRVtSqmlaG-7" style="edgeStyle=orthogonalEdgeStyle;rounded=0;orthogonalLoop=1;jettySize=auto;html=1;exitX=0.5;exitY=1;exitDx=0;exitDy=0;entryX=0.5;entryY=0;entryDx=0;entryDy=0;" edge="1" parent="1" source="ddf9Bvz1MeLeIGU98-r2-26" target="JdZRbOxOSghRVtSqmlaG-6">
          <mxGeometry relative="1" as="geometry" />
        </mxCell>
        <mxCell id="ddf9Bvz1MeLeIGU98-r2-26" value="Absolute Orientation" style="rounded=0;whiteSpace=wrap;html=1;" parent="1" vertex="1">
          <mxGeometry x="680" y="480" width="120" height="60" as="geometry" />
        </mxCell>
        <mxCell id="ddf9Bvz1MeLeIGU98-r2-38" style="edgeStyle=orthogonalEdgeStyle;rounded=0;orthogonalLoop=1;jettySize=auto;html=1;entryX=0.5;entryY=0;entryDx=0;entryDy=0;" parent="1" source="ddf9Bvz1MeLeIGU98-r2-27" target="ddf9Bvz1MeLeIGU98-r2-28" edge="1">
          <mxGeometry relative="1" as="geometry" />
        </mxCell>
        <mxCell id="ddf9Bvz1MeLeIGU98-r2-27" value="Point Correspondences&lt;br&gt;(inter-camera)" style="rounded=0;whiteSpace=wrap;html=1;" parent="1" vertex="1">
          <mxGeometry x="360" y="590" width="120" height="60" as="geometry" />
        </mxCell>
        <mxCell id="ddf9Bvz1MeLeIGU98-r2-39" style="edgeStyle=orthogonalEdgeStyle;rounded=0;orthogonalLoop=1;jettySize=auto;html=1;entryX=0.5;entryY=0;entryDx=0;entryDy=0;" parent="1" source="ddf9Bvz1MeLeIGU98-r2-28" target="ddf9Bvz1MeLeIGU98-r2-29" edge="1">
          <mxGeometry relative="1" as="geometry" />
        </mxCell>
        <mxCell id="ddf9Bvz1MeLeIGU98-r2-28" value="Global Bundle Adjustment" style="rounded=0;whiteSpace=wrap;html=1;" parent="1" vertex="1">
          <mxGeometry x="360" y="680" width="120" height="60" as="geometry" />
        </mxCell>
        <mxCell id="ddf9Bvz1MeLeIGU98-r2-29" value="3D Point Cloud" style="rounded=0;whiteSpace=wrap;html=1;" parent="1" vertex="1">
          <mxGeometry x="360" y="770" width="120" height="60" as="geometry" />
        </mxCell>
        <mxCell id="ddf9Bvz1MeLeIGU98-r2-41" style="edgeStyle=orthogonalEdgeStyle;rounded=0;orthogonalLoop=1;jettySize=auto;html=1;exitX=0.5;exitY=0;exitDx=0;exitDy=0;entryX=0.5;entryY=1;entryDx=0;entryDy=0;" parent="1" source="ddf9Bvz1MeLeIGU98-r2-30" target="ddf9Bvz1MeLeIGU98-r2-11" edge="1">
          <mxGeometry relative="1" as="geometry" />
        </mxCell>
        <mxCell id="ddf9Bvz1MeLeIGU98-r2-30" value="Intrinsic Parameters" style="rounded=1;whiteSpace=wrap;html=1;" parent="1" vertex="1">
          <mxGeometry x="360" y="240" width="120" height="60" as="geometry" />
        </mxCell>
        <mxCell id="ddf9Bvz1MeLeIGU98-r2-44" value="new &amp;gt;&amp;gt;&amp;gt; old" style="text;html=1;strokeColor=none;fillColor=none;align=center;verticalAlign=middle;whiteSpace=wrap;rounded=0;dashed=1;" parent="1" vertex="1">
          <mxGeometry x="540" y="290" width="70" height="20" as="geometry" />
        </mxCell>
        <mxCell id="JdZRbOxOSghRVtSqmlaG-4" style="edgeStyle=orthogonalEdgeStyle;rounded=0;orthogonalLoop=1;jettySize=auto;html=1;entryX=0.992;entryY=0.617;entryDx=0;entryDy=0;entryPerimeter=0;" edge="1" parent="1" source="JdZRbOxOSghRVtSqmlaG-1" target="ddf9Bvz1MeLeIGU98-r2-17">
          <mxGeometry relative="1" as="geometry" />
        </mxCell>
        <mxCell id="JdZRbOxOSghRVtSqmlaG-5" style="edgeStyle=orthogonalEdgeStyle;rounded=0;orthogonalLoop=1;jettySize=auto;html=1;exitX=0;exitY=0.75;exitDx=0;exitDy=0;entryX=0;entryY=0.5;entryDx=0;entryDy=0;" edge="1" parent="1" source="JdZRbOxOSghRVtSqmlaG-1" target="ddf9Bvz1MeLeIGU98-r2-28">
          <mxGeometry relative="1" as="geometry" />
        </mxCell>
        <mxCell id="JdZRbOxOSghRVtSqmlaG-1" value="Relative position and orientation of cameras w.r.t each other" style="rounded=1;whiteSpace=wrap;html=1;" vertex="1" parent="1">
          <mxGeometry x="360" y="320" width="120" height="60" as="geometry" />
        </mxCell>
        <mxCell id="JdZRbOxOSghRVtSqmlaG-2" value="Local Bundle Adjustment" style="rounded=0;whiteSpace=wrap;html=1;" vertex="1" parent="1">
          <mxGeometry x="80" y="580" width="120" height="60" as="geometry" />
        </mxCell>
        <mxCell id="JdZRbOxOSghRVtSqmlaG-6" value="Local Bundle Adjustment" style="rounded=0;whiteSpace=wrap;html=1;" vertex="1" parent="1">
          <mxGeometry x="680" y="580" width="120" height="60" as="geometry" />
        </mxCell>
        <mxCell id="JdZRbOxOSghRVtSqmlaG-8" value="synchronized" style="text;html=1;strokeColor=none;fillColor=none;align=center;verticalAlign=middle;whiteSpace=wrap;rounded=0;" vertex="1" parent="1">
          <mxGeometry x="530" y="30" width="40" height="20" as="geometry" />
        </mxCell>
      </root>
    </mxGraphModel>
  </diagram>
</mxfile>
